<svg xmlns="http://www.w3.org/2000/svg" viewBox="0 0 163 831"><defs><linearGradient x1="50%" y1="0%" x2="50%" y2="100%" id="a"><stop stop-color="#FFE879" offset="0%"/><stop stop-color="#FFE69E" offset="36.8%"/><stop offset="39.7%"/><stop stop-color="#FFF09E" offset="42.1%"/><stop stop-color="#FFE2AC" offset="44.3%"/><stop stop-color="#1D1800" offset="55.3%"/><stop offset="61.2%"/><stop stop-color="#FFE578" offset="82.1%"/><stop stop-color="#FFFED0" offset="100%"/></linearGradient><linearGradient x1="58.6%" y1="34.4%" x2="44.2%" y2="35.6%" id="b"><stop stop-color="#FFF" offset="0%"/><stop stop-color="#B28934" offset="45.6%"/><stop stop-color="#E6D068" offset="60.8%"/><stop stop-color="#FFF181" offset="100%"/></linearGradient><linearGradient x1="67.4%" y1="44.9%" x2="42.8%" y2="61.2%" id="c"><stop stop-color="#11C400" offset="0%"/><stop stop-color="#0D9A00" offset="18.9%"/><stop stop-color="#0C8B00" offset="38.2%"/><stop stop-color="#B6F0B1" offset="100%"/></linearGradient><linearGradient x1="22.9%" y1="46.7%" x2="83.4%" y2="50%" id="d"><stop stop-color="#ABF8A3" offset="0%"/><stop stop-color="#2EA023" offset="67.1%"/><stop stop-color="#085C00" offset="100%"/></linearGradient><linearGradient x1="40.6%" y1="58.8%" x2="62%" y2="41.2%" id="e"><stop stop-color="#4CDF3E" offset="0%"/><stop stop-color="#17A40A" offset="22.3%"/><stop stop-color="#0D9A00" offset="58.9%"/><stop stop-color="#0C8B00" offset="78.6%"/><stop stop-color="#B6F0B1" offset="100%"/></linearGradient><linearGradient x1="50%" y1="0%" x2="50%" y2="100%" id="f"><stop stop-color="#FFDF3F" offset="0%"/><stop stop-color="#D7BF43" offset="32.9%"/><stop stop-color="#7D764C" offset="50.3%"/><stop stop-color="#FFFDD3" offset="64.8%"/><stop stop-color="#FFE387" offset="100%"/></linearGradient></defs><g fill="none" fill-rule="evenodd"><rect stroke="#3B3B3B" stroke-width="6" fill="url(#a)" transform="rotate(90 66 430)" x="-289" y="410" width="710" height="39" rx="19.5"/><g transform="rotate(90 81 82)" stroke="#694C4C" stroke-width="5"><path d="M10 57c2 4 5 7 7 8 4 2 5 6 5 10 0 5-2 11-4 17l-3 13-1 10v4l10 1c7 0 14-4 18-9 5-6 9-14 9-22 0-10-4-21-12-32H10zm-2-5h29c4 0 7-1 10-3l5-7c3-6 1-15-4-24S37 4 31 3c-7-2-14 1-22 7-3 2-4 5-5 8-2 5-2 10-1 16l5 18z" fill="url(#b)" transform="matrix(-1 0 0 1 56 0)"/><path d="M80 130c2 4 5 7 7 8 4 2 5 6 5 10 0 5-2 11-4 17l-3 13-1 10v4l10 1c7 0 14-4 18-9 5-6 9-14 9-22 0-10-4-21-12-32H80zm-2-5h29c4 0 7-1 10-3l5-7c3-6 1-15-4-24s-11-14-17-15c-7-2-14 1-22 7-3 2-4 5-5 8-2 5-2 10-1 16l5 18z" fill="url(#b)" transform="rotate(90 98 134)"/><path d="M44 62c-15 0-26 5-33 15 8 10 19 15 33 15s25-5 35-15c-9-10-20-15-35-15z" fill="url(#c)" transform="rotate(107 45 77)"/><path d="M67 104c-16 0-28 5-36 17 9 12 21 18 36 18s27-6 37-18c-9-12-21-17-37-17z" fill="url(#d)" transform="rotate(-180 68 121)"/><path d="M70 74c-17 0-30 6-39 18 10 11 23 17 39 17 17 0 30-6 41-17a49 49 0 00-41-18z" fill="url(#e)" transform="rotate(142 71 92)"/><circle fill="url(#f)" cx="28" cy="122" r="13.5"/></g><g transform="translate(0 669)" stroke="#694C4C" stroke-width="5"><path d="M10 57c2 4 5 7 7 8 4 2 5 6 5 10 0 5-2 11-4 17l-3 13-1 10v4l10 1c7 0 14-4 18-9 5-6 9-14 9-22 0-10-4-21-12-32H10zm-2-5h29c4 0 7-1 10-3l5-7c3-6 1-15-4-24S37 4 31 3c-7-2-14 1-22 7-3 2-4 5-5 8-2 5-2 10-1 16l5 18z" fill="url(#b)" transform="matrix(-1 0 0 1 56 0)"/><path d="M80 130c2 4 5 7 7 8 4 2 5 6 5 10 0 5-2 11-4 17l-3 13-1 10v4l10 1c7 0 14-4 18-9 5-6 9-14 9-22 0-10-4-21-12-32H80zm-2-5h29c4 0 7-1 10-3l5-7c3-6 1-15-4-24s-11-14-17-15c-7-2-14 1-22 7-3 2-4 5-5 8-2 5-2 10-1 16l5 18z" fill="url(#b)" transform="rotate(90 98 134)"/><path d="M44 62c-15 0-26 5-33 15 8 10 19 15 33 15s25-5 35-15c-9-10-20-15-35-15z" fill="url(#c)" transform="rotate(107 45 77)"/><path d="M67 104c-16 0-28 5-36 17 9 12 21 18 36 18s27-6 37-18c-9-12-21-17-37-17z" fill="url(#d)" transform="rotate(-180 68 121)"/><path d="M70 74c-17 0-30 6-39 18 10 11 23 17 39 17 17 0 30-6 41-17a49 49 0 00-41-18z" fill="url(#e)" transform="rotate(142 71 92)"/><circle fill="url(#f)" cx="28" cy="122" r="13.5"/></g></g></svg>