<?xml version="1.0" encoding="UTF-8" standalone="no"?>
<!DOCTYPE svg PUBLIC "-//W3C//DTD SVG 1.1//EN" "http://www.w3.org/Graphics/SVG/1.1/DTD/svg11.dtd">
<svg width="100%" height="100%" viewBox="0 0 250 250" version="1.1" xmlns="http://www.w3.org/2000/svg" xmlns:xlink="http://www.w3.org/1999/xlink" xml:space="preserve" xmlns:serif="http://www.serif.com/" style="fill-rule:evenodd;clip-rule:evenodd;stroke-linecap:round;stroke-linejoin:round;stroke-miterlimit:1.5;">
    <g transform="matrix(0.931237,0.409691,-0.415932,0.945424,37.4929,-3.95899)">
        <ellipse cx="33.962" cy="77.863" rx="34.131" ry="35.791" style="fill:rgb(181,102,45);stroke:rgb(181,102,45);stroke-width:0.98px;"/>
    </g>
    <g transform="matrix(0.867868,-0.5309,0.538988,0.881089,142.168,33.4331)">
        <ellipse cx="33.962" cy="77.863" rx="34.131" ry="35.791" style="fill:rgb(181,102,45);stroke:rgb(181,102,45);stroke-width:0.98px;"/>
    </g>
    <g transform="matrix(1,0,0,1,-0.517715,11.6053)">
        <path d="M124.155,44.297C160.686,44.703 186.68,51.539 205.322,99.769C213.655,121.326 204.202,155.067 204.202,155.067C204.202,155.067 217.441,182.969 195.761,199.7C178.534,212.997 93.424,218.547 61.429,203.464C29.434,188.381 46.07,155.436 46.07,155.436C43.375,148.199 37.736,117.509 44.549,99.308C62.275,51.955 87.087,43.885 124.155,44.297Z" style="fill:rgb(255,189,63);stroke:rgb(255,189,63);stroke-width:1px;"/>
    </g>
    <g transform="matrix(1,0,0,1,0,4.875)">
        <path d="M77.288,25.305C77.288,25.305 77.551,44.827 88.329,52.692C99.108,60.557 106.746,62.34 117.164,63.237C127.581,64.133 141.973,61.208 150.664,48.778L164.417,49.034L166.948,36.413L151.417,39.271C151.417,39.271 150.82,29.106 131.473,26.342C112.126,23.578 99.759,32.418 77.288,25.305Z" style="fill:rgb(93,174,0);stroke:rgb(93,174,0);stroke-width:1px;"/>
    </g>
    <g transform="matrix(1,0,0,1,0,4.875)">
        <path d="M117.068,138.04C117.572,136.862 119.186,107.557 89.211,106.715C54.812,105.75 45.117,144.576 56.08,165.406C62.732,178.044 84.584,177.674 101.477,164.86C116.931,153.139 116.564,139.217 117.068,138.04Z" style="fill:rgb(181,102,45);stroke:rgb(181,102,45);stroke-width:1px;"/>
    </g>
    <g transform="matrix(-1,0,0,1,249.35,4.67667)">
        <path d="M117.068,138.04C117.572,136.862 119.186,107.557 89.211,106.715C54.812,105.75 45.117,144.576 56.08,165.406C62.732,178.044 84.584,177.674 101.477,164.86C116.931,153.139 116.564,139.217 117.068,138.04Z" style="fill:rgb(181,102,45);stroke:rgb(181,102,45);stroke-width:1px;"/>
    </g>
    <g transform="matrix(1,0,0,1,0,4.875)">
        <path d="M101,27.338C101,27.338 86.262,37.603 86.26,53.757C86.257,69.911 93.67,77.039 100.866,79.94C100.866,79.94 113.418,95.968 127.981,85.728L132.734,67.705C132.734,67.705 111.043,54.457 116.968,41.774C116.968,41.774 106.764,48.506 111.596,60.033C111.596,60.033 88.316,49.244 101,27.338Z" style="fill:rgb(255,189,63);stroke:rgb(255,189,63);stroke-width:1px;"/>
    </g>
</svg>
